<svg xmlns="http://www.w3.org/2000/svg" width="35.052" height="35.052" viewBox="0 0 35.052 35.052"><path d="M265.595,527.895v7.789H261.7v-7.789A3.993,3.993,0,0,1,265.595,524h7.789v3.895Zm0,19.473v7.789h7.789v3.895h-7.789a3.993,3.993,0,0,1-3.895-3.895v-7.789Zm8.179-11.294a7.53,7.53,0,1,1-2.337,5.453A7.369,7.369,0,0,1,273.773,536.073Zm2.726,8.179a3.765,3.765,0,1,0-1.168-2.726A3.845,3.845,0,0,0,276.5,544.252ZM292.857,524a3.993,3.993,0,0,1,3.895,3.895v7.789h-3.895v-7.789h-7.789V524Zm0,31.157v-7.789h3.895v7.789a3.993,3.993,0,0,1-3.895,3.895h-7.789v-3.895Z" transform="translate(-261.7 -524)" fill="#fff"/></svg>